<?xml version="1.0" encoding="utf-8"?>
<!-- Generator: Adobe Illustrator 16.0.0, SVG Export Plug-In . SVG Version: 6.00 Build 0)  -->
<!DOCTYPE svg PUBLIC "-//W3C//DTD SVG 1.1//EN" "http://www.w3.org/Graphics/SVG/1.1/DTD/svg11.dtd">
<svg version="1.1" id="Layer_1" xmlns="http://www.w3.org/2000/svg" xmlns:xlink="http://www.w3.org/1999/xlink" x="0px" y="0px"
	 width="640px" height="640px" viewBox="0 0 640 640" enable-background="new 0 0 640 640" xml:space="preserve">
<path d="M319.63,317.305c55.481,0,101.479-45.997,101.479-101.478c0-55.481-45.997-101.478-101.479-101.478
	c-55.472,0-101.479,45.997-101.479,101.478C218.151,271.308,264.158,317.305,319.63,317.305z M319.63,164.417
	c28.418,0,51.409,22.991,51.409,51.41s-22.991,51.41-51.409,51.41c-28.411,0-51.409-22.991-51.409-51.41
	S291.219,164.417,319.63,164.417z M408.941,462.082c8.111-6.771,14.881-16.236,22.99-24.348
	c67.663-78.488,101.479-147.492,101.479-208.367v-12.184c0-119.072-97.424-216.494-216.479-216.494
	c-119.073,0-216.496,97.422-216.496,216.494v12.184c0,59.519,33.831,129.879,101.478,208.367
	c8.118,8.111,16.236,16.239,23.006,24.348c-70.361,6.77-177.251,28.419-177.251,86.599c0,31.117,31.116,55.481,90.653,71.718
	c48.711,13.522,112.303,20.291,179.957,20.291c67.655,0,131.248-6.769,179.958-20.291c60.877-16.236,90.654-40.601,90.654-71.718
	C588.893,490.501,483.343,468.852,408.941,462.082z M153.212,228.009v-12.182c0-92.011,74.416-166.427,166.418-166.427
	c92.01,0,166.427,74.416,166.427,166.427v12.182c0,47.354-29.759,106.89-89.295,174.537c-29.776,35.188-59.537,62.25-77.132,78.487
	c-17.587-14.895-47.355-43.299-77.123-77.131C184.329,336.257,153.212,275.363,153.212,228.009z M475.232,574.385
	c-43.301,10.824-97.424,16.237-155.594,16.237c-58.187,0-112.312-5.413-155.603-16.237c-43.298-9.469-58.187-21.647-62.242-25.704
	c4.055-4.055,14.88-12.183,47.354-21.648c32.474-9.469,77.123-16.239,124.484-18.953c17.586,14.896,28.411,24.363,29.768,25.721
	l16.229,13.523l16.237-13.523c1.357,0,12.181-9.485,29.776-25.721c47.354,2.714,91.993,9.484,124.468,18.953
	c32.475,8.125,43.3,17.594,47.354,21.648C533.411,552.737,518.53,563.56,475.232,574.385z"/>
</svg>
