<?xml version="1.0" encoding="utf-8"?>
<!-- Generator: Adobe Illustrator 16.0.0, SVG Export Plug-In . SVG Version: 6.00 Build 0)  -->
<!DOCTYPE svg PUBLIC "-//W3C//DTD SVG 1.1//EN" "http://www.w3.org/Graphics/SVG/1.1/DTD/svg11.dtd">
<svg version="1.1" id="Layer_1" xmlns="http://www.w3.org/2000/svg" xmlns:xlink="http://www.w3.org/1999/xlink" x="0px" y="0px"
	 width="640px" height="640px" viewBox="0 0 640 640" enable-background="new 0 0 640 640" xml:space="preserve">
<path d="M640,318.069c0-22.656-48.217-39.458-53.332-59.915c-5.113-21.914,29.953-58.441,20.457-78.174
	c-10.229-20.458-60.64-14.613-74.52-31.415c-13.884-17.535,2.189-65.751-15.345-79.631c-16.802-13.155-59.906,13.88-80.364,4.379
	c-19.729-9.492-26.302-59.906-48.221-65.019c-21.186-4.388-48.221,38.716-70.867,38.716c-22.646,0.732-50.411-42.372-71.597-37.259
	c-21.19,5.121-27.035,56.26-46.759,65.76c-20.458,9.491-63.562-16.811-81.097-2.923c-17.535,13.88,0,62.096-13.884,79.631
	c-13.879,17.535-64.29,12.423-73.791,32.88c-9.496,19.725,27.035,55.519,21.919,77.441C47.488,283.732,0,301.268,0,323.914
	s48.216,39.449,53.333,60.639c5.112,21.914-29.953,58.45-20.457,78.174c10.229,20.458,60.639,13.88,74.519,31.415
	c13.884,16.802-2.189,65.019,15.345,78.907c16.802,13.879,59.906-13.156,80.364-3.655c19.729,9.5,26.302,59.906,48.221,65.018
	c21.186,4.389,48.221-38.716,70.868-38.716c22.646-0.732,50.41,42.371,71.596,37.26c21.919-5.112,27.035-56.26,46.76-65.752
	c20.458-10.232,63.562,16.069,81.097,2.19c16.802-13.88,0-62.105,13.884-79.64c13.147-17.535,64.29-12.414,73.786-32.871
	c9.5-19.725-27.031-55.527-21.914-77.451C592.512,358.251,640,340.716,640,318.069z M273.243,444.459L163.654,336.328l40.182-41.639
	l68.673,67.217l161.465-165.115l41.643,40.905L273.243,444.459z"/>
</svg>
