<?xml version="1.0" encoding="utf-8"?>
<!-- Generator: Adobe Illustrator 24.0.0, SVG Export Plug-In . SVG Version: 6.00 Build 0)  -->
<svg version="1.1" id="Layer_1" xmlns="http://www.w3.org/2000/svg" xmlns:xlink="http://www.w3.org/1999/xlink" x="0px" y="0px"
	 viewBox="0 0 640 640" style="enable-background:new 0 0 640 640;" xml:space="preserve">
<style type="text/css">
	.st0{fill:#231F20;}
</style>
<path class="st0" d="M492.9,426.1V78.5c0-36.6-29.2-66.2-65-66.2h-350c-35.9,0-65,29.6-65,66.2v347.6c0,36.6,29.1,66.2,65,66.2h350
	C463.7,492.3,492.8,462.7,492.9,426.1z M635.6,221.3v347.6c-0.1,36.6-29.2,66.2-65,66.2h-350c-35.8,0-64.8-29.5-65-65.9h349.1
	c35.8,0,64.9-29.6,65-66.2V155.3c0-0.1,0-0.2,0-0.3h1C606.5,155,635.6,184.7,635.6,221.3z"/>
</svg>
