<?xml version="1.0" encoding="utf-8"?>
<!-- Generator: Adobe Illustrator 16.0.0, SVG Export Plug-In . SVG Version: 6.00 Build 0)  -->
<!DOCTYPE svg PUBLIC "-//W3C//DTD SVG 1.1//EN" "http://www.w3.org/Graphics/SVG/1.1/DTD/svg11.dtd">
<svg version="1.1" id="Layer_1" xmlns="http://www.w3.org/2000/svg" xmlns:xlink="http://www.w3.org/1999/xlink" x="0px" y="0px"
	 width="640px" height="640px" viewBox="0 0 640 640" enable-background="new 0 0 640 640" xml:space="preserve">
<path d="M400,320c0,44.188-35.813,80-80,80s-80-35.813-80-80s35.813-80,80-80S400,275.813,400,320z M80,240
	c-44.188,0-80,35.813-80,80s35.812,80,80,80c44.177,0,80-35.813,80-80S124.177,240,80,240z M560,240c-44.189,0-80,35.813-80,80
	s35.811,80,80,80c44.188,0,80-35.813,80-80S604.188,240,560,240z"/>
</svg>
