<?xml version="1.0" encoding="utf-8"?>
<!-- Generator: Adobe Illustrator 16.0.0, SVG Export Plug-In . SVG Version: 6.00 Build 0)  -->
<!DOCTYPE svg PUBLIC "-//W3C//DTD SVG 1.1//EN" "http://www.w3.org/Graphics/SVG/1.1/DTD/svg11.dtd">
<svg version="1.1" id="Layer_1" xmlns="http://www.w3.org/2000/svg" xmlns:xlink="http://www.w3.org/1999/xlink" x="0px" y="0px"
	 width="640px" height="640px" viewBox="0 0 640 640" enable-background="new 0 0 640 640" xml:space="preserve">
<g>
	<path d="M583.905,474.079l-68.587-72.912V320v-81.168l68.587-72.912H640V320v154.079H583.905L583.905,474.079z M388.019,543.672
		H60.725C27.085,543.672,0,515.975,0,481.987V158.013c0-33.987,27.435-61.684,60.725-61.684h327.294
		c33.638,0,60.635,27.697,60.635,61.684v323.975C448.653,516.279,421.656,543.672,388.019,543.672L388.019,543.672z
		 M224.372,167.874c-82.881,0-150.043,68.298-150.043,152.126c0,83.783,67.162,152.134,150.043,152.134S374.328,404.112,374.328,320
		C374.328,235.886,307.253,167.874,224.372,167.874L224.372,167.874z M224.386,393.884c-40.071,0-72.383-32.867-72.383-73.534
		c0-40.705,32.624-73.57,72.383-73.57c40.071,0,72.617,32.866,72.617,73.57C297.003,361.017,264.457,393.884,224.386,393.884
		L224.386,393.884z"/>
</g>
</svg>
